HIERARCHY
ROOT Hips
{
	OFFSET 0.000000 0.000000 0.000000
	CHANNELS 6 Xposition Yposition Zposition Zrotation Yrotation Xrotation 
	JOINT LeftUpLeg_virtual
	{
		OFFSET 0.000000 0.000000 0.000000
		CHANNELS 3 Zrotation Yrotation Xrotation
		JOINT LeftUpLeg
		{
			OFFSET 8.479694 -4.795517 -0.379053
			CHANNELS 3 Zrotation Yrotation Xrotation
			JOINT LeftLeg
			{
				OFFSET 0.485052 -32.551468 0.112863
				CHANNELS 3 Zrotation Yrotation Xrotation
				JOINT LeftFoot
				{
					OFFSET 0.438033 -32.635670 -3.012641
					CHANNELS 3 Zrotation Yrotation Xrotation
					JOINT LeftToeBase
					{
						OFFSET 0.970169 -13.225353 11.864223
						CHANNELS 3 Zrotation Yrotation Xrotation
						End Site
						{
							OFFSET 0.000000 0.000000 0.000000
						}
					}
				}
			}
		}
	}
	JOINT RightUpLeg_virtual
	{
		OFFSET 0.000000 0.000000 0.000000
		CHANNELS 3 Zrotation Yrotation Xrotation
		JOINT RightUpLeg
		{
			OFFSET -8.479694 -4.795517 -0.379053
			CHANNELS 3 Zrotation Yrotation Xrotation
			JOINT RightLeg
			{
				OFFSET -0.484100 -32.551483 0.112903
				CHANNELS 3 Zrotation Yrotation Xrotation
				JOINT RightFoot
				{
					OFFSET -0.438985 -32.635651 -3.012681
					CHANNELS 3 Zrotation Yrotation Xrotation
					JOINT RightToeBase
					{
						OFFSET -0.970169 -13.225354 11.864223
						CHANNELS 3 Zrotation Yrotation Xrotation
						End Site
						{
							OFFSET 0.000000 0.000000 0.000000
						}
					}
				}
			}
		}
	}
	JOINT Spine_virtual
	{
		OFFSET 0.000000 0.000000 0.000000
		CHANNELS 3 Zrotation Yrotation Xrotation
		JOINT Spine
		{
			OFFSET 0.000000 7.722015 1.166203
			CHANNELS 3 Zrotation Yrotation Xrotation
			JOINT Spine1
			{
				OFFSET 0.000000 12.024086 0.248766
				CHANNELS 3 Zrotation Yrotation Xrotation
				JOINT Spine2
				{
					OFFSET -0.000000 11.503036 -0.491240
					CHANNELS 3 Zrotation Yrotation Xrotation
					JOINT Neck_virtual
					{
						OFFSET 0.000000 0.000000 0.000000
						CHANNELS 3 Zrotation Yrotation Xrotation
						JOINT Neck
						{
							OFFSET 0.000000 18.430687 -3.123054
							CHANNELS 3 Zrotation Yrotation Xrotation
							JOINT Head
							{
								OFFSET -0.000000 9.051071 1.034021
								CHANNELS 3 Zrotation Yrotation Xrotation
								End Site
								{
									OFFSET 0.000000 0.000000 0.000000
								}
							}
						}
					}
					JOINT LeftShoulder_virtual
					{
						OFFSET 0.000000 0.000000 0.000000
						CHANNELS 3 Zrotation Yrotation Xrotation
						JOINT LeftShoulder
						{
							OFFSET 6.197824 13.665230 -4.064723
							CHANNELS 3 Zrotation Yrotation Xrotation
							JOINT LeftArm
							{
								OFFSET 7.778132 -0.187073 -1.709282
								CHANNELS 3 Zrotation Yrotation Xrotation
								JOINT LeftForeArm
								{
									OFFSET 21.954697 0.000000 -2.041093
									CHANNELS 3 Zrotation Yrotation Xrotation
									JOINT LeftHand
									{
										OFFSET 22.992908 0.000000 -0.870901
										CHANNELS 3 Zrotation Yrotation Xrotation
										End Site
										{
											OFFSET 0.000000 0.000000 0.000000
										}
									}
								}
							}
						}
					}
					JOINT RightShoulder_virtual
					{
						OFFSET 0.000000 0.000000 0.000000
						CHANNELS 3 Zrotation Yrotation Xrotation
						JOINT RightShoulder
						{
							OFFSET -6.197824 13.665230 -4.064723
							CHANNELS 3 Zrotation Yrotation Xrotation
							JOINT RightArm
							{
								OFFSET -7.778132 -0.187073 -1.709282
								CHANNELS 3 Zrotation Yrotation Xrotation
								JOINT RightForeArm
								{
									OFFSET -21.954697 0.000000 -2.041093
									CHANNELS 3 Zrotation Yrotation Xrotation
									JOINT RightHand
									{
										OFFSET -22.992908 0.000000 -0.870901
										CHANNELS 3 Zrotation Yrotation Xrotation
										End Site
										{
											OFFSET 0.000000 0.000000 0.000000
										}
									}
								}
							}
						}
					}
				}
			}
		}
	}
}
MOTION
Frames: 8
Frame Time: 0.033333
-9.887647 83.420067 2.386725 -179.595644 -2.830172 179.967944 -7.937454 -2.103879 19.460409 4.469837 3.759013 -32.794405 -2.456223 3.171293 24.572422 2.046530 -11.407259 -5.317504 0.000000 0.000000 0.000000 -1.241806 -5.112601 18.946631 -4.965381 -7.689176 -22.218718 -1.598591 5.289227 27.027129 10.803513 1.056792 5.278071 0.000000 0.000000 0.000000 -3.057730 -2.583576 12.905316 -3.463598 5.562299 -0.426851 3.641260 -0.165660 7.099019 -0.159523 -0.335705 0.000639 3.667851 0.823987 6.390858 10.627874 5.460603 -11.447601 0.000000 0.000000 0.000000 4.360026 1.076985 3.703950 9.066026 -11.760846 4.436458 -44.254390 -16.870472 -3.354997 159.950258 -87.908284 -130.946092 0.000000 0.000000 0.000000 0.554917 2.775015 2.050667 -2.462599 3.258460 -3.223461 -37.703314 47.807212 -44.316439 173.757636 63.918263 -179.933957 0.000000 0.000000 0.000000 
-10.007407 83.400337 2.511938 -179.601409 -3.068759 -179.977315 -7.910926 -2.324482 19.621834 4.303670 3.878198 -33.092830 -2.519754 3.123730 24.642967 2.112503 -11.578701 -5.265085 0.000000 0.000000 0.000000 -1.234619 -5.204745 19.099282 -5.020346 -7.589431 -22.512642 -1.578819 5.318013 27.024704 10.764946 1.014601 5.240602 0.000000 0.000000 0.000000 -2.975803 -2.890332 13.222113 -3.274780 5.670777 -0.270402 3.654055 -0.161781 7.277657 -0.151641 -0.263216 0.003622 3.621685 0.839929 6.625133 10.928461 5.327069 -11.166552 0.000000 0.000000 0.000000 4.436251 1.284760 3.932059 8.845721 -11.209832 4.554208 -45.540102 -15.981772 -2.666339 148.148647 -88.247656 -118.584351 0.000000 0.000000 0.000000 0.623766 2.881034 2.258810 -2.984626 2.757769 -3.550651 -37.487206 47.182448 -44.357277 173.955028 62.333331 179.827024 0.000000 0.000000 0.000000 
-10.094686 83.377434 2.607596 -179.600958 -3.467602 -179.977575 -7.892100 -2.537444 19.780983 4.140813 4.014658 -33.338679 -2.543090 3.056675 24.702308 2.150508 -11.725911 -5.199832 0.000000 0.000000 0.000000 -1.270150 -5.489051 19.323637 -5.020086 -7.590782 -22.782542 -1.547113 5.296046 27.091793 10.741862 0.940151 5.164381 0.000000 0.000000 0.000000 -2.909504 -3.249860 13.545887 -3.161513 5.718657 -0.086222 3.656108 -0.213569 7.416954 -0.179043 -0.283461 0.000448 3.647122 0.855254 6.813147 11.266303 5.139669 -10.944267 0.000000 0.000000 0.000000 4.504829 1.300496 4.045763 8.646184 -10.766151 4.787508 -46.700107 -15.201259 -2.214886 139.204993 -88.413534 -109.239798 0.000000 0.000000 0.000000 0.656338 3.000385 2.387132 -3.278942 2.417965 -3.728519 -37.462208 46.806556 -44.317713 174.204193 61.283859 179.702386 0.000000 0.000000 0.000000 
-10.158081 83.351822 2.689247 -179.606245 -3.297690 179.959324 -7.875336 -2.589739 19.934238 3.963339 4.231699 -33.505459 -2.535122 3.085752 24.672312 2.235792 -11.779087 -5.229116 0.000000 0.000000 0.000000 -1.304220 -5.372282 19.388470 -5.091242 -7.429473 -22.831622 -1.538110 5.312609 27.054299 10.748306 0.848572 5.137884 0.000000 0.000000 0.000000 -2.882266 -3.067221 13.798165 -3.165554 6.011751 0.089067 3.701641 -0.069924 7.505244 -0.148936 -0.365368 -0.013869 3.644423 0.918754 6.873958 11.468881 4.881744 -10.895280 0.000000 0.000000 0.000000 4.467531 1.190391 4.138220 8.452945 -10.492791 4.988803 -47.512063 -14.730307 -2.018369 128.856477 -88.404798 -98.635213 0.000000 0.000000 0.000000 0.672671 2.896436 2.375720 -3.532094 2.180799 -3.789435 -37.247597 46.592709 -44.177223 174.549323 60.674640 179.698561 0.000000 0.000000 0.000000 
-10.213403 83.322433 2.778747 -179.596150 -3.943081 179.876037 -7.897006 -2.781091 19.979263 3.851078 4.336274 -33.614404 -2.495937 3.004673 24.776238 2.225751 -11.910716 -5.175355 0.000000 0.000000 0.000000 -1.397483 -5.835100 19.503854 -5.034008 -7.581231 -22.866695 -1.501160 5.203037 27.059413 10.762484 0.757459 5.062813 0.000000 0.000000 0.000000 -2.913261 -3.804691 14.016247 -3.183446 5.890833 0.266570 3.682628 -0.123324 7.616385 -0.170824 -0.226708 0.049691 3.667439 0.743833 6.945935 11.599401 4.713065 -10.653773 0.000000 0.000000 0.000000 4.531724 1.276953 4.072580 8.341786 -10.169885 5.134599 -48.040419 -14.271069 -1.826921 124.005937 -88.450984 -93.620126 0.000000 0.000000 0.000000 0.719004 3.063603 2.390221 -3.729087 2.069990 -3.817170 -37.034133 46.663743 -44.084766 174.997889 60.797768 179.772232 0.000000 0.000000 0.000000 
-10.257902 83.290771 2.877445 -179.612269 -3.575828 179.975403 -7.928289 -2.778610 19.970857 3.740582 4.504616 -33.721539 -2.441096 3.074030 24.850417 2.348647 -11.892290 -5.388938 0.000000 0.000000 0.000000 -1.410566 -5.634078 19.589391 -5.051831 -7.464184 -23.440221 -1.489503 5.318395 27.496515 10.777903 0.660247 4.959487 0.000000 0.000000 0.000000 -2.871591 -3.288653 14.058008 -3.294855 6.008165 0.349463 3.658718 -0.163158 7.640618 -0.143904 -0.298815 -0.038471 3.658450 0.891782 7.070226 11.657228 4.600833 -10.736413 0.000000 0.000000 0.000000 4.565494 1.257721 4.279502 8.259920 -10.100725 5.209821 -48.311827 -14.162919 -1.768688 120.763509 -88.395994 -90.292553 0.000000 0.000000 0.000000 0.689186 2.946357 2.425203 -3.796526 2.024860 -3.882751 -36.586376 46.778111 -43.779450 175.333032 61.154843 179.699381 0.000000 0.000000 0.000000 
-10.298592 83.262344 2.977699 -179.625233 -3.425869 179.963259 -7.966359 -2.764359 19.917540 3.658159 4.624355 -33.735411 -2.384185 3.125432 24.901393 2.425394 -11.911000 -5.532367 0.000000 0.000000 0.000000 -1.447037 -5.517414 19.546075 -5.076749 -7.452523 -23.564829 -1.476578 5.340559 27.703117 10.813951 0.569872 4.919884 0.000000 0.000000 0.000000 -2.964368 -3.260214 14.093189 -3.494014 6.014348 0.461464 3.730381 -0.123558 7.697377 -0.109494 -0.261394 -0.024515 3.632848 0.913476 7.099028 11.624396 4.565999 -10.778138 0.000000 0.000000 0.000000 4.519580 1.241072 4.252962 8.151507 -10.029200 5.308952 -48.315167 -14.306755 -1.678101 118.412859 -88.323218 -87.922402 0.000000 0.000000 0.000000 0.662846 3.003811 2.404927 -3.857699 2.050444 -3.832820 -35.866502 47.090538 -43.257265 175.698734 61.752567 179.684464 0.000000 0.000000 0.000000 
-10.323658 83.237808 3.049471 -179.623580 -3.572974 179.914874 -7.999389 -2.754000 19.817319 3.608469 4.676599 -33.672464 -2.323096 3.136652 24.979323 2.462153 -11.967405 -5.623465 0.000000 0.000000 0.000000 -1.495190 -5.601643 19.441237 -5.084554 -7.553796 -23.470719 -1.454846 5.292723 27.802738 10.854915 0.478569 4.898917 0.000000 0.000000 0.000000 -3.006457 -3.408177 14.079941 -3.689644 5.996693 0.564217 3.738509 -0.006905 7.741809 -0.126717 -0.335719 -0.026526 3.653847 1.000733 7.123250 11.582004 4.487589 -10.954604 0.000000 0.000000 0.000000 4.554020 1.299066 4.269193 8.151123 -10.118953 5.205455 -48.045439 -14.799628 -1.797352 123.104297 -88.376344 -92.662438 0.000000 0.000000 0.000000 0.710137 2.983718 2.433114 -3.714288 2.099129 -3.683240 -35.104013 47.541310 -42.560036 176.168037 62.537827 179.833198 0.000000 0.000000 0.000000 
